# xmcd
#
# Track frame offsets:
#	150
#	23081
#	50366
#	77377
#	105291
#
# Disc length: 1606 seconds
#
# Revision: 0
# Processed by: cddbd v1.5.2PL0 Copyright (c) Steve Scherf et al.
# Submitted via: EasyCDDAExtractor 16.0.6.1
#
DISCID=27064405
DTITLE=Kato and Safri Duo Feat. Björnskov - Dimitto (Let Go) 
DYEAR=2015
DGENRE=House
TTITLE0=Dimitto (Let Go) (Willy William Remix)
TTITLE1=Dimitto (Let Go) (Aba Remix)
TTITLE2=Dimitto (Let Go) (Kato Remix)
TTITLE3=Dimitto (Let Go) (Extended)
TTITLE4=Dimitto (Let Go) (Radio Edit)
EXTD=
EXTT0=
EXTT1=
EXTT2=
EXTT3=
EXTT4=
PLAYORDER=
